<?xml version="1.0" encoding="utf-8"?>
<!-- Generator: Adobe Illustrator 19.0.0, SVG Export Plug-In . SVG Version: 6.00 Build 0)  -->
<svg version="1.1" id="main" xmlns="http://www.w3.org/2000/svg" xmlns:xlink="http://www.w3.org/1999/xlink" x="0px" y="0px"
	 viewBox="0 0 841.9 595.3" style="enable-background:new 0 0 841.9 595.3;" xml:space="preserve">
<style type="text/css">
	.st0{display:none;}
	.st1{display:inline;stroke:#FFFFFF;stroke-miterlimit:10;}
	.st2{fill:none;stroke:#F0C419;stroke-width:45;stroke-miterlimit:10;}
	.st3{fill:url(#XMLID_10_);}
	.st4{fill:#F0C419;}
	.st5{fill:none;stroke:#F1C40F;stroke-width:45;stroke-miterlimit:10;}
</style>
<g id="bg" class="st0">
	<rect x="145" y="31.3" class="st1" width="572" height="519"/>
</g>
<g id="swirl_bg">
	<path class="st2" d="M603,118.1c-45.3-45.3-166.2,2.2-270.1,106.1S181.6,449,226.9,494.3"/>
</g>
<g id="sphere">
	<linearGradient id="XMLID_10_" gradientUnits="userSpaceOnUse" x1="336.4606" y1="213.1556" x2="553.8427" y2="430.5377">
		<stop  offset="0" style="stop-color:#235FAC"/>
		<stop  offset="1" style="stop-color:#000000"/>
	</linearGradient>
	<circle id="XMLID_1_" class="st3" cx="420.9" cy="297.6" r="167.8"/>
</g>
<g id="logo">
	<g id="XMLID_3_">
		<g id="XMLID_52_">
			<g id="XMLID_53_">
				<path id="XMLID_55_" class="st4" d="M515.2,185.8l-93,62l-93-62l-56.4,135.4L422.2,460l149.5-138.8L515.2,185.8z M296.2,316.1
					l42-100.7l84.1,56l84.1-56l42,100.7l-126,117L296.2,316.1z"/>
				<polygon id="XMLID_54_" class="st4" points="422.2,369.3 446.8,335.4 397.6,335.4 				"/>
			</g>
		</g>
	</g>
</g>
<g id="swirl_fg">
	<path class="st5" d="M224.3,491.7c45.3,45.3,166.2-2.2,270.1-106.1s151.4-224.8,106.1-270.1"/>
</g>
</svg>
